<svg width="44px" height="44px" viewBox="0 0 44 44" version="1.1" xmlns="http://www.w3.org/2000/svg" xmlns:xlink="http://www.w3.org/1999/xlink">
    <g id="Page-1" stroke="none" stroke-width="1" fill="none" fill-rule="evenodd">
        <g id="wap_v4-3" transform="translate(-129.000000, -179.000000)" fill="#000000">
            <g id="Group-Copy-3" transform="translate(111.000000, 161.000000)">
                <path d="M23.8095238,46.5 L38.1666667,56.0714286 L38.1666667,47.5238095 L30.2142857,42.2142857 L23.8095238,46.5 Z M22.3333333,43.0714286 L26.9285714,40 L22.3333333,36.9285714 L22.3333333,43.0714286 Z M41.8333333,56.0714286 L56.1904762,46.5 L49.7857143,42.2142857 L41.8333333,47.5238095 L41.8333333,56.0714286 Z M40,44.3333333 L46.4761905,40 L40,35.6666667 L33.5238095,40 L40,44.3333333 Z M30.2142857,37.7857143 L38.1666667,32.4761905 L38.1666667,23.9285714 L23.8095238,33.5 L30.2142857,37.7857143 Z M53.0714286,40 L57.6666667,43.0714286 L57.6666667,36.9285714 L53.0714286,40 Z M49.7857143,37.7857143 L56.1904762,33.5 L41.8333333,23.9285714 L41.8333333,32.4761905 L49.7857143,37.7857143 Z M61.3333333,33.5 L61.3333333,46.5 C61.3333333,47.1507969 61.0634948,47.6587283 60.5238095,48.0238095 L41.0238095,61.0238095 C40.6904745,61.2301598 40.3492081,61.3333333 40,61.3333333 C39.6507919,61.3333333 39.3095255,61.2301598 38.9761905,61.0238095 L19.4761905,48.0238095 C18.9365052,47.6587283 18.6666667,47.1507969 18.6666667,46.5 L18.6666667,33.5 C18.6666667,32.8492031 18.9365052,32.3412717 19.4761905,31.9761905 L38.9761905,18.9761905 C39.3095255,18.7698402 39.6507919,18.6666667 40,18.6666667 C40.3492081,18.6666667 40.6904745,18.7698402 41.0238095,18.9761905 L60.5238095,31.9761905 C61.0634948,32.3412717 61.3333333,32.8492031 61.3333333,33.5 Z" id=""></path>
            </g>
        </g>
    </g>
</svg>